<svg width="40" height="40" viewBox="0 0 40 40" fill="none" xmlns="http://www.w3.org/2000/svg">
<g clip-path="url(#clip0_104_132)">
<path fill-rule="evenodd" clip-rule="evenodd" d="M39.0088 1.02503C37.4513 -0.53747 34.7138 -0.171244 33.1475 1.39876L25.1763 9.35125L10.3913 3.82628C8.97501 3.46003 7.54878 2.98628 5.79253 4.74753C4.89628 5.64503 3.03378 7.51253 5.79253 10.2763L15.93 18.5763L9.33379 25.1588L3.17878 23.62C2.26628 23.385 1.6513 23.5688 1.18255 24.0863C0.946296 24.3813 -0.767459 25.6513 0.427541 26.8488L7.58376 32.4163L13.1513 39.5725C14.0163 40.44 14.82 39.8988 15.9188 38.855C16.615 38.1575 16.465 37.7988 16.255 36.7825L14.865 30.67L21.4163 24.0963L29.7038 34.2363C32.4613 37 34.325 35.1313 35.2213 34.2363C36.9788 32.4738 36.5063 31.0463 36.14 29.6275L30.6613 14.8175L38.6 6.85125C40.1663 5.28251 40.5675 2.58628 39.0088 1.02503Z" fill="#00FFD1"/>
</g>
<defs>
<clipPath id="clip0_104_132">
<rect width="40" height="40" fill="white"/>
</clipPath>
</defs>
</svg>
