<svg width="60" height="60" viewBox="0 0 60 60" fill="none" xmlns="http://www.w3.org/2000/svg">
<path fill-rule="evenodd" clip-rule="evenodd" d="M46.3108 30.0013C46.3108 39.6663 38.6718 47.5013 29.2483 47.5013C29.2483 39.2163 31.6858 28.7513 43.8733 27.5013H46.1378C46.2533 28.3293 46.311 29.1648 46.3108 30.0013Z" stroke="#00FFD1" stroke-width="3.75" stroke-linecap="round" stroke-linejoin="round"/>
<path d="M14.8147 25.6357C13.7845 25.5302 12.8638 26.2797 12.7581 27.3097C12.6525 28.34 13.4019 29.2607 14.4321 29.3662L14.8147 25.6357ZM29.2482 47.501V49.376C29.7455 49.3762 30.2225 49.1785 30.574 48.827C30.9257 48.4752 31.1232 47.9985 31.1232 47.501H29.2482ZM44.281 27.7622C44.4255 28.7877 45.3737 29.502 46.399 29.3577C47.4245 29.2135 48.1387 28.2652 47.9945 27.2397L44.281 27.7622ZM14.6234 29.376C15.6589 29.376 16.4984 28.5365 16.4984 27.501C16.4984 26.4655 15.6589 25.626 14.6234 25.626V29.376ZM12.3589 25.626C11.3234 25.626 10.4839 26.4655 10.4839 27.501C10.4839 28.5365 11.3234 29.376 12.3589 29.376V25.626ZM14.6234 25.626C13.5878 25.626 12.7484 26.4655 12.7484 27.501C12.7484 28.5365 13.5878 29.376 14.6234 29.376V25.626ZM43.8732 29.376C44.909 29.376 45.7482 28.5365 45.7482 27.501C45.7482 26.4655 44.909 25.626 43.8732 25.626V29.376ZM14.4321 29.3662C19.9082 29.928 23.0307 32.4945 24.8703 35.7792C26.7752 39.1805 27.3732 43.4932 27.3732 47.501H31.1232C31.1232 43.2237 30.5027 38.1615 28.142 33.9467C25.716 29.615 21.5261 26.3242 14.8147 25.6357L14.4321 29.3662ZM29.2485 45.626C21.1853 45.6252 14.4698 39.119 14.0802 30.7485L10.3342 30.9227C10.8131 41.2105 19.0989 49.375 29.2482 49.376L29.2485 45.626ZM14.0802 30.7485C13.6904 22.3751 19.7753 15.2361 27.8062 14.4469L27.4395 10.7148C17.3409 11.7073 9.85548 20.6379 10.3342 30.9227L14.0802 30.7485ZM27.8062 14.4469C35.8305 13.6583 43.1145 19.4729 44.281 27.7622L47.9945 27.2397C46.5592 17.0412 37.5447 9.72174 27.4395 10.7148L27.8062 14.4469ZM14.6234 25.626H12.3589V29.376H14.6234V25.626ZM14.6234 29.376H43.8732V25.626H14.6234V29.376Z" fill="#00FFD1"/>
</svg>
