<svg width="60" height="60" viewBox="0 0 60 60" fill="none" xmlns="http://www.w3.org/2000/svg">
<path d="M5 30C5 27.67 6.5936 25.7125 8.75027 25.1575V34.8425C6.5936 34.2875 5 32.33 5 30Z" fill="#00FFD1"/>
<path d="M55 30C55 32.3298 53.4065 34.2875 51.2498 34.8425V25.1575C53.4065 25.7125 55 27.6703 55 30Z" fill="#00FFD1"/>
<path d="M47.5 22.5V37.5C47.5 38.6625 47.5 39.2437 47.3722 39.7205C47.0255 41.0147 46.0148 42.0255 44.7205 42.3722C44.2438 42.5 43.6625 42.5 42.5 42.5C41.3375 42.5 40.7562 42.5 40.2795 42.3722C38.9852 42.0255 37.9745 41.0147 37.6278 39.7205C37.5 39.2437 37.5 38.6625 37.5 37.5V31.875H22.5V37.5C22.5 38.6625 22.5 39.2437 22.3722 39.7205C22.0255 41.0147 21.0147 42.0255 19.7206 42.3722C19.2437 42.5 18.6625 42.5 17.5 42.5C16.3375 42.5 15.7563 42.5 15.2794 42.3722C13.9853 42.0255 12.9745 41.0147 12.6278 39.7205C12.5 39.2437 12.5 38.6625 12.5 37.5V22.5C12.5 21.3375 12.5 20.7563 12.6278 20.2794C12.9745 18.9853 13.9853 17.9745 15.2794 17.6278C15.7563 17.5 16.3375 17.5 17.5 17.5C18.6625 17.5 19.2437 17.5 19.7206 17.6278C21.0147 17.9745 22.0255 18.9853 22.3722 20.2794C22.5 20.7563 22.5 21.3375 22.5 22.5V28.125H37.5V22.5C37.5 21.3375 37.5 20.7563 37.6278 20.2794C37.9745 18.9853 38.9852 17.9745 40.2795 17.6278C40.7562 17.5 41.3375 17.5 42.5 17.5C43.6625 17.5 44.2438 17.5 44.7205 17.6278C46.0148 17.9745 47.0255 18.9853 47.3722 20.2794C47.5 20.7563 47.5 21.3375 47.5 22.5Z" fill="#00FFD1"/>
</svg>
