<svg width="50" height="50" viewBox="0 0 50 50" fill="none" xmlns="http://www.w3.org/2000/svg">
<g id="pen_svgrepo.com">
<path id="Vector" d="M31.8478 6.5662L29.917 8.4972L12.1643 26.2498C10.9619 27.4523 10.3607 28.0533 9.84362 28.7162C9.23368 29.4983 8.71079 30.3444 8.28412 31.2396C7.92243 31.9985 7.65358 32.8052 7.11583 34.4183L4.83718 41.2544L4.28018 42.9254C4.01556 43.7192 4.22216 44.5944 4.81389 45.1862C5.40562 45.7779 6.28087 45.9846 7.07475 45.72L8.74575 45.1629L15.5817 42.8842C17.1949 42.3465 18.0015 42.0777 18.7605 41.716C19.6557 41.2894 20.5018 40.7665 21.2838 40.1565C21.9467 39.6394 22.5478 39.0381 23.7503 37.8358L41.5028 20.0832L43.4338 18.1522C46.6332 14.9528 46.6332 9.76558 43.4338 6.5662C40.2345 3.36681 35.0472 3.36681 31.8478 6.5662Z" stroke="#00FFD1" stroke-width="3.75"/>
<path id="Vector_2" opacity="0.5" d="M29.9168 8.49609C29.9168 8.49609 30.1582 12.5995 33.7789 16.2201C37.3995 19.8407 41.5028 20.0821 41.5028 20.0821M8.74572 45.1619L4.83716 41.2531" stroke="#00FFD1" stroke-width="3.75"/>
</g>
</svg>
