<svg width="25" height="24" viewBox="0 0 25 24" fill="white" xmlns="http://www.w3.org/2000/svg">
<path id="Vector" fill-rule="evenodd" clip-rule="evenodd" d="M3.10335 0.991861C4.62502 -0.521161 7.13048 -0.251839 8.40462 1.45014L9.98087 3.55564C11.0176 4.9405 10.9261 6.87601 9.6955 8.09965L9.397 8.39642C9.384 8.43429 9.35237 8.5533 9.3875 8.77949C9.4665 9.28886 9.89187 10.3694 11.6775 12.1449C13.4625 13.9197 14.5506 14.3447 15.0672 14.424C15.3014 14.4599 15.4239 14.4264 15.4617 14.4131L15.9717 13.906C17.0657 12.8182 18.7469 12.6149 20.1014 13.3512L22.4895 14.6495C24.5344 15.7611 25.0511 18.5407 23.3756 20.2066L21.6 21.9722C21.0405 22.5285 20.2881 22.9924 19.3699 23.078C17.1086 23.2889 11.8359 23.0199 6.29573 17.5111C1.12335 12.3681 0.130772 7.88311 0.0051841 5.67332C-0.0583159 4.55594 0.469697 3.61056 1.14135 2.94272L3.10335 0.991861ZM6.90363 2.57381C6.27035 1.72789 5.09 1.66062 4.4254 2.32146L2.4634 4.27232C2.051 4.68239 1.85257 5.1343 1.87716 5.56695C1.97695 7.32269 2.77857 11.3697 7.61778 16.1815C12.6946 21.2295 17.3836 21.3801 19.1959 21.2111C19.5661 21.1766 19.9344 20.9842 20.278 20.6426L22.0536 18.877C22.7755 18.1594 22.6162 16.8525 21.594 16.2967L19.2059 14.9986C18.5464 14.6401 17.7737 14.7584 17.2937 15.2356L16.7245 15.8017L16.0635 15.1369C16.7245 15.8017 16.7236 15.8026 16.7227 15.8035L16.7209 15.8052L16.717 15.809L16.7089 15.8169L16.6906 15.8339C16.6775 15.8459 16.6624 15.859 16.6455 15.8731C16.6115 15.9012 16.5697 15.933 16.5199 15.9665C16.4197 16.0335 16.2876 16.1065 16.1215 16.1682C15.783 16.2944 15.3365 16.3621 14.783 16.2772C13.6995 16.1111 12.2642 15.3724 10.3555 13.4745C8.44737 11.5772 7.70242 10.1485 7.53462 9.06694C7.44882 8.51387 7.51726 8.06725 7.64492 7.72842C7.70748 7.56237 7.78121 7.43034 7.84887 7.33047C7.88262 7.28067 7.91473 7.23904 7.94307 7.20521C7.95725 7.1883 7.9705 7.17332 7.98255 7.16024L7.99971 7.14201L8.00757 7.13394L8.01131 7.13015L8.01313 7.12832C8.01402 7.12744 8.01492 7.12655 8.676 7.79134L8.01492 7.12655L8.37343 6.77006C8.90925 6.23735 8.98425 5.35304 8.47987 4.67932L6.90363 2.57381Z" fill="white"/>
</svg>
