<svg width="50" height="50" viewBox="0 0 50 50" fill="none" xmlns="http://www.w3.org/2000/svg">
<path fill-rule="evenodd" clip-rule="evenodd" d="M4.68926 24.7519C4.66738 25.1188 4.71938 25.5638 4.82342 26.4538L5.65817 33.5954C6.0349 36.8185 7.75722 39.7321 10.3995 41.616C12.3463 43.004 14.6777 43.75 17.0687 43.75H24.5976C26.9886 43.75 29.3199 43.004 31.2668 41.616C32.9407 40.4225 34.2453 38.816 35.0726 36.9792H39.5832C43.898 36.9792 47.3957 33.4815 47.3957 29.1667C47.3957 24.8519 43.898 21.3542 39.5832 21.3542H34.8357C34.4426 21.1365 34.009 20.9798 33.5472 20.8977C33.1853 20.8333 32.7372 20.8333 31.8411 20.8333H9.82513C8.92905 20.8333 8.48101 20.8333 8.11915 20.8977C6.22232 21.235 4.80403 22.8286 4.68926 24.7519ZM36.9518 24.4792C36.9632 24.5692 36.9715 24.6602 36.977 24.7519C36.9988 25.1188 36.947 25.5638 36.843 26.4535L36.0082 33.5954C35.998 33.6819 35.987 33.7681 35.9749 33.8542H39.5832C42.172 33.8542 44.2707 31.7554 44.2707 29.1667C44.2707 26.5779 42.172 24.4792 39.5832 24.4792H36.9518Z" fill="#00FFD1"/>
<path fill-rule="evenodd" clip-rule="evenodd" d="M21.9385 3.06183C22.5488 3.67202 22.5488 4.66135 21.9385 5.27154C21.3981 5.81193 21.3981 6.6881 21.9385 7.22849C23.6994 8.98929 23.6994 11.8441 21.9385 13.6049C21.3283 14.2151 20.339 14.2151 19.7288 13.6049C19.1186 12.9947 19.1186 12.0053 19.7288 11.3952C20.2692 10.8548 20.2692 9.9786 19.7288 9.4382C17.968 7.67741 17.968 4.82262 19.7288 3.06183C20.339 2.45164 21.3283 2.45164 21.9385 3.06183Z" fill="#00FFD1"/>
<path fill-rule="evenodd" clip-rule="evenodd" d="M12.5632 6.18683C13.1734 6.79702 13.1734 7.78635 12.5632 8.39654L12.3213 8.63845C11.8145 9.14522 11.7575 9.94749 12.1875 10.5208C13.5506 12.3383 13.3698 14.8815 11.7634 16.488L11.5215 16.7299C10.9113 17.3401 9.92199 17.3401 9.3118 16.7299C8.70161 16.1197 8.70161 15.1303 9.3118 14.5202L9.55372 14.2782C10.0605 13.7715 10.1175 12.9692 9.68749 12.3958C8.32438 10.5784 8.50513 8.03516 10.1115 6.42874L10.3535 6.18683C10.9637 5.57664 11.953 5.57664 12.5632 6.18683Z" fill="#00FFD1"/>
<path fill-rule="evenodd" clip-rule="evenodd" d="M32.3548 6.18683C32.965 6.79702 32.965 7.78635 32.3548 8.39654L32.113 8.63845C31.6063 9.14522 31.5492 9.94749 31.9792 10.5208C33.3423 12.3383 33.1615 14.8815 31.555 16.488L31.3132 16.7299C30.703 17.3401 29.7138 17.3401 29.1036 16.7299C28.4934 16.1197 28.4934 15.1303 29.1036 14.5202L29.3455 14.2782C29.8521 13.7715 29.9092 12.9692 29.4792 12.3958C28.1161 10.5784 28.2969 8.03516 29.9034 6.42874L30.1453 6.18683C30.7555 5.57664 31.7446 5.57664 32.3548 6.18683Z" fill="#00FFD1"/>
</svg>
